<svg width="686" height="215" viewBox="0 0 686 215" fill="none" xmlns="http://www.w3.org/2000/svg">
<path d="M57.4491 144.238C61.5514 144.238 63.8934 145.842 65.7991 148.235L64.0388 149.794C63.3309 148.75 62.3677 147.903 61.2404 147.332C60.1131 146.762 58.8581 146.486 57.5945 146.531C52.0782 146.531 48.7081 150.913 48.7081 156.554C48.7081 162.194 52.0782 166.625 57.5945 166.625C58.8613 166.66 60.1163 166.374 61.2427 165.796C62.3696 165.218 63.3313 164.365 64.0388 163.318L65.7991 164.867C63.8934 167.3 61.5514 168.903 57.4491 168.903C50.5182 168.903 45.9746 163.408 45.9746 156.549C45.9746 149.689 50.5182 144.238 57.4491 144.238Z" fill="black"/>
<path d="M79.4213 168.315V147.062H72.4854V144.824H88.9397V147.062H81.9586V168.315H79.4213Z" fill="black"/>
<path d="M100.413 177.266H97.876V144.823H100.413V148.52C101.342 147.209 102.57 146.137 103.996 145.392C105.423 144.648 107.008 144.252 108.618 144.238C114.917 144.238 119.149 149.004 119.149 156.544C119.149 164.082 114.902 168.898 108.618 168.898C106.998 168.879 105.407 168.471 103.979 167.709C102.551 166.947 101.328 165.854 100.413 164.522V177.266ZM108.182 146.522C104.907 146.522 101.783 148.47 100.413 150.708V162.334C101.268 163.617 102.42 164.676 103.772 165.421C105.124 166.166 106.637 166.576 108.182 166.615C113.452 166.615 116.431 162.234 116.431 156.544C116.431 150.853 113.452 146.522 108.182 146.522Z" fill="black"/>
<path d="M128.009 156.544C128.009 149.684 132.452 144.238 139.338 144.238C146.319 144.238 150.712 149.684 150.712 156.544C150.712 163.403 146.319 168.898 139.338 168.898C132.452 168.898 128.009 163.403 128.009 156.544ZM147.979 156.544C147.979 151.338 144.905 146.522 139.338 146.522C133.866 146.522 130.742 151.338 130.742 156.544C130.742 161.749 133.866 166.615 139.338 166.615C144.905 166.615 147.979 161.799 147.979 156.544Z" fill="black"/>
<path d="M160.92 168.311V144.831H163.458V164.365L176.883 144.811H179.39V168.292H176.852V148.468L163.358 168.311H160.92Z" fill="black"/>
<path d="M195.246 168.315V147.062H188.311V144.824H204.764V147.062H197.784V168.315H195.246Z" fill="black"/>
<path d="M222.69 144.238C229.867 144.238 233.824 149.929 233.824 156.688V157.373H214.095C214.34 162.479 217.756 166.71 223.322 166.71C224.765 166.731 226.197 166.453 227.526 165.892C228.855 165.331 230.052 164.5 231.04 163.453L232.359 165.107C230.012 167.54 227.033 168.898 223.127 168.898C216.246 168.898 211.312 163.793 211.312 156.544C211.312 149.734 216.146 144.238 222.69 144.238ZM214.095 155.374H231.236C231.186 151.378 228.548 146.427 222.64 146.427C217.073 146.427 214.29 151.293 214.095 155.374Z" fill="black"/>
<path d="M240.122 166.466C242.564 166.466 244.761 163.649 246.175 150.175L246.737 144.824H261.681V168.305H259.139V147.062H248.908L248.567 150.27C247.008 165.787 244.174 168.9 240.122 168.9V166.466Z" fill="black"/>
<path d="M275.768 144.824V153.577H284.509C289.635 153.577 292.127 157.229 292.127 160.971C292.127 164.618 289.62 168.315 284.509 168.315H273.226V144.834L275.768 144.824ZM275.768 155.815V166.032H284.349C287.859 166.032 289.429 163.694 289.429 160.971C289.429 158.248 287.924 155.815 284.349 155.815H275.768Z" fill="black"/>
<path d="M301.746 168.315V144.834H304.284V155.046H317.664V144.824H320.201V168.305H317.664V157.274H304.284V168.315H301.746Z" fill="black"/>
<path d="M346.769 168.312V165.54C344.667 167.828 342.035 168.897 338.745 168.897C334.693 168.897 330.495 166.124 330.495 161.068C330.495 156.012 334.643 153.285 338.745 153.285C342.019 153.285 344.703 154.354 346.769 156.642V151.876C346.769 148.379 343.935 146.48 340.42 146.48C337.491 146.48 335.199 147.479 333.048 149.932L331.633 148.179C332.756 146.888 334.154 145.864 335.726 145.183C337.297 144.502 339.003 144.18 340.716 144.242C345.5 144.242 349.307 146.525 349.307 151.781V168.317L346.769 168.312ZM346.769 158.535C345.911 157.484 344.823 156.644 343.587 156.079C342.351 155.514 341.001 155.24 339.643 155.278C335.736 155.278 333.193 157.776 333.193 161.113C333.193 164.45 335.736 166.903 339.643 166.903C342.471 166.903 345.109 165.834 346.769 163.691V158.535Z" fill="black"/>
<path d="M360.146 168.315L366.74 158.688C362.879 158.443 360.341 155.72 360.341 151.778C360.341 147.837 362.979 144.824 367.518 144.824H379.238V168.305H376.65V158.733H369.473L363.174 168.315H360.146ZM376.65 156.495V147.062H367.713C364.704 147.062 362.979 149.006 362.979 151.778C362.979 154.551 364.589 156.495 367.713 156.495H376.65Z" fill="black"/>
<path d="M423.43 168.314L414.007 157.128L409.609 161.265V168.314H407.071V144.833H409.609V158.257L423.525 144.833H426.895L415.907 155.425L426.845 168.314H423.43Z" fill="black"/>
<path d="M432.952 156.544C432.952 149.684 437.396 144.238 444.281 144.238C451.262 144.238 455.655 149.684 455.655 156.544C455.655 163.403 451.262 168.898 444.281 168.898C437.396 168.898 432.952 163.403 432.952 156.544ZM452.922 156.544C452.922 151.338 449.848 146.522 444.281 146.522C438.81 146.522 435.686 151.338 435.686 156.544C435.686 161.749 438.81 166.615 444.281 166.615C449.843 166.615 452.922 161.799 452.922 156.544Z" fill="black"/>
<path d="M487.197 168.314V148.13L478.311 168.314H477.382L468.396 148.13V168.314H465.89V144.833H469.256L477.849 164.193L486.346 144.833H489.813V168.314H487.197Z" fill="black"/>
<path d="M517.28 168.314V147.061H503.903V168.314H501.365V144.833H519.823V168.314H517.28Z" fill="black"/>
<path d="M546.386 168.312V165.54C544.286 167.828 541.648 168.897 538.359 168.897C534.307 168.897 530.104 166.124 530.104 161.068C530.104 156.012 534.257 153.285 538.359 153.285C541.629 153.285 544.318 154.354 546.386 156.642V151.876C546.386 148.379 543.555 146.48 540.038 146.48C537.111 146.48 534.815 147.479 532.666 149.932L531.248 148.179C532.368 146.888 533.768 145.864 535.341 145.183C536.914 144.502 538.615 144.18 540.33 144.242C545.114 144.242 548.928 146.525 548.928 151.781V168.317L546.386 168.312ZM546.386 158.535C545.526 157.483 544.437 156.642 543.203 156.077C541.968 155.512 540.619 155.239 539.256 155.278C535.35 155.278 532.812 157.776 532.812 161.113C532.812 164.45 535.35 166.903 539.256 166.903C542.091 166.903 544.73 165.834 546.386 163.691V158.535Z" fill="black"/>
<path d="M560.503 168.315V144.834H563.037V155.046H576.418V144.824H578.956V168.305H576.418V157.274H563.037V168.315H560.503Z" fill="black"/>
<path d="M590.531 168.311V144.831H593.069V164.365L606.497 144.811H609.007V168.292H606.469V148.468L592.973 168.311H590.531Z" fill="black"/>
<path d="M619.852 168.315L626.446 158.688C622.586 158.443 620.048 155.72 620.048 151.778C620.048 147.837 622.687 144.824 627.224 144.824H638.909V168.305H636.32V158.733H629.145L622.861 168.315H619.852ZM636.357 156.495V147.062H627.375C624.365 147.062 622.641 149.006 622.641 151.778C622.641 154.551 624.251 156.495 627.375 156.495H636.357Z" fill="black"/>
<path d="M132.759 85.1493H104.931V43.5732H91.0195V85.1493V99.0131V112.872H104.931V99.0131H132.759V112.872H146.671V99.0131V85.1493V43.5732H132.759V85.1493Z" fill="black"/>
<path d="M271.894 57.4518C276.207 57.4509 280.415 58.7807 283.938 61.2591C287.462 63.7371 290.129 67.2416 291.572 71.2909H305.981C304.374 63.4626 300.103 56.428 293.889 51.3769C287.674 46.3262 279.899 43.5692 271.879 43.5732C262.654 43.5732 253.808 47.2233 247.285 53.7208C240.761 60.218 237.096 69.0307 237.095 78.2199C237.095 87.4104 240.759 96.224 247.283 102.723C253.806 109.221 262.653 112.872 271.879 112.872C279.899 112.875 287.675 110.117 293.889 105.065C300.103 100.014 304.375 92.978 305.981 85.1493H291.572C289.934 89.7763 286.706 93.6765 282.459 96.1605C278.212 98.6449 273.219 99.552 268.365 98.7226C263.511 97.8928 259.108 95.3801 255.935 91.6276C252.762 87.8756 251.023 83.1264 251.026 78.2199C251.032 72.7104 253.233 67.4278 257.145 63.5335C261.058 59.6393 266.363 57.4518 271.894 57.4518Z" fill="black"/>
<path d="M494.505 57.4547C498.822 57.4551 503.03 58.7877 506.556 61.2698C510.077 63.7514 512.743 67.26 514.184 71.313H528.581C526.976 63.4852 522.704 56.4501 516.489 51.3994C510.274 46.3483 502.499 43.5917 494.477 43.5957C485.253 43.5957 476.408 47.2458 469.887 53.7434C463.361 60.2405 459.697 69.0532 459.697 78.2424C459.697 87.433 463.361 96.2466 469.882 102.745C476.408 109.244 485.253 112.894 494.477 112.894C502.499 112.897 510.274 110.139 516.489 105.088C522.704 100.036 526.976 93.0006 528.581 85.1718H514.175C512.533 89.7989 509.309 93.6991 505.06 96.183C500.812 98.667 495.822 99.5745 490.965 98.7452C486.113 97.9154 481.709 95.4022 478.535 91.6502C475.361 87.8982 473.623 83.149 473.628 78.2424C473.628 75.5119 474.167 72.8079 475.215 70.2851C476.266 67.7623 477.803 65.47 479.742 63.5396C481.681 61.6092 483.982 60.0781 486.515 59.0338C489.049 57.9899 491.765 57.4533 494.505 57.4547Z" fill="black"/>
<path d="M591.894 51.1971L557.109 85.8487V43.5732H543.197V112.872H557.109V105.448L591.894 70.801V112.872H605.806V43.5732H591.894V51.1971Z" fill="black"/>
<path d="M341.461 43.5732H320.589V57.4321H341.461V112.872H355.373V57.4321H376.24V43.5732H355.373H341.461Z" fill="black"/>
<path d="M668.421 43.5732H644.072C637.615 43.5732 631.422 46.1286 626.853 50.6774C622.289 55.2263 619.724 61.3954 619.724 67.8285C619.724 72.6724 621.178 77.4047 623.904 81.417C626.629 85.4288 630.494 88.5366 635.008 90.3404L626.68 112.872H641.653L649.336 92.0837H668.393V112.872H682.305V43.5732H668.421ZM644.072 78.2199C642.682 78.2505 641.301 78.0039 640.006 77.4953C638.717 76.9866 637.537 76.2258 636.544 75.2574C635.552 74.2895 634.761 73.1335 634.221 71.8572C633.681 70.5809 633.407 69.2104 633.407 67.8262C633.407 66.4415 633.681 65.071 634.221 63.7947C634.761 62.5189 635.552 61.3625 636.544 60.3945C637.537 59.4261 638.717 58.6654 640.006 58.1567C641.301 57.648 642.682 57.4015 644.072 57.4321H668.421V78.2199H644.072Z" fill="black"/>
<path d="M186.196 43.5732L160.59 112.872H175.564L180.685 99.0131H210.057L215.178 112.872H230.153L204.546 43.5732H186.196ZM185.81 85.1493L195.369 59.2756L204.932 85.1493H185.81Z" fill="black"/>
<path d="M408.806 43.5732L383.199 112.872H398.189L403.31 99.0131H432.682L437.808 112.872H452.782L427.151 43.5732H408.806ZM408.42 85.1493L417.978 59.2756L427.542 85.1493H408.42Z" fill="black"/>
<path d="M49.2804 43.5732H34.3056L24.07 71.2909L7.52051 112.872H22.5153L28.0318 99.0131H63.187V112.872H77.1036V43.5732H49.2804ZM63.187 85.1493H33.5333L39.0497 71.2909L44.16 57.4518H63.2172L63.187 85.1493Z" fill="black"/>
</svg>
