<svg width="718" height="314" viewBox="0 0 718 314" fill="none" xmlns="http://www.w3.org/2000/svg">
<g clip-path="url(#clip0_183_1667)">
<mask id="mask0_183_1667" style="mask-type:luminance" maskUnits="userSpaceOnUse" x="0" y="0" width="718" height="314">
<path d="M718 0H0V314H718V0Z" fill="white"/>
</mask>
<g mask="url(#mask0_183_1667)">
<path d="M449.746 111.093L298.401 0L224.873 54.9594V26.0643H212.9V63.9093L0 223.044L300.115 19.2281L449.746 111.093Z" fill="#EB602C"/>
<path d="M152.688 226.279C153.866 228.955 155.482 231.322 157.492 233.312C159.504 235.307 161.888 236.89 164.576 238.019C167.272 239.153 170.135 239.726 173.085 239.726H202.681C205.782 239.726 208.731 239.103 211.444 237.871C214.115 236.662 216.469 235.032 218.44 233.027C220.408 231.024 221.986 228.67 223.131 226.027C224.287 223.355 224.873 220.501 224.873 217.547V187.966C224.873 184.872 224.25 181.925 223.017 179.208C221.803 176.532 220.161 174.179 218.138 172.208C216.12 170.243 213.747 168.671 211.087 167.524C208.398 166.372 205.57 165.786 202.68 165.786H173.084C169.99 165.786 167.043 166.41 164.321 167.644C161.648 168.853 159.285 170.492 157.302 172.511C155.316 174.531 153.737 176.887 152.606 179.518C151.469 182.175 150.892 185.017 150.892 187.966V195.414H137.645V165.786H122.903V239.726H137.645V210.146H150.892V217.546C150.892 220.636 151.497 223.572 152.688 226.279ZM165.633 186.333C165.633 183.124 168.237 180.519 171.45 180.519H204.316C207.529 180.519 210.134 183.124 210.134 186.333V219.181C210.134 222.391 207.529 224.995 204.316 224.995H171.45C168.237 224.995 165.633 222.391 165.633 219.181V186.333Z" fill="black"/>
<path d="M234.069 239.725H248.811V180.519H292.204V165.785H234.069V239.725Z" fill="black"/>
<path d="M395.556 180.519H425.149V239.725H439.889V180.519H469.536V165.785H395.556V180.519Z" fill="black"/>
<path d="M552.954 203.918C554.094 201.417 554.673 198.74 554.673 195.967V186.615C554.601 183.716 553.941 180.959 552.716 178.423C551.509 175.917 549.903 173.701 547.933 171.851C545.958 169.996 543.616 168.503 540.959 167.422C538.289 166.336 535.431 165.785 532.478 165.785H480.688V239.725H495.424V216.801H532.478C535.579 216.801 538.522 216.223 541.228 215.084C543.903 213.96 546.268 212.422 548.256 210.517C550.248 208.617 551.823 206.397 552.954 203.918ZM539.931 195.967C539.931 197.954 539.222 199.585 537.773 200.948C536.324 202.313 534.591 202.977 532.478 202.977H495.424V179.657H532.478C534.591 179.657 536.324 180.318 537.773 181.688C539.222 183.048 539.931 184.679 539.931 186.667V195.967Z" fill="black"/>
<path d="M635.519 187.965C635.519 184.931 634.896 182.021 633.662 179.323C632.454 176.671 630.817 174.317 628.793 172.337C626.782 170.359 624.431 168.761 621.819 167.591C619.149 166.391 616.29 165.785 613.324 165.785H583.729C580.709 165.785 577.801 166.39 575.091 167.583C572.407 168.761 570.042 170.364 568.059 172.35C566.071 174.342 564.469 176.698 563.311 179.357C562.131 182.049 561.543 184.943 561.543 187.965V217.545C561.543 220.614 562.113 223.542 563.248 226.243C564.379 228.929 565.968 231.305 567.965 233.303C569.966 235.301 572.344 236.886 575.028 238.017C577.729 239.152 580.655 239.725 583.729 239.725H613.324C616.358 239.725 619.257 239.122 621.954 237.925C624.606 236.749 626.962 235.156 628.945 233.191C630.942 231.215 632.549 228.859 633.724 226.182C634.914 223.476 635.519 220.569 635.519 217.545V187.965ZM620.782 219.18C620.782 222.389 618.18 224.994 614.962 224.994H582.096C578.883 224.994 576.28 222.389 576.28 219.18V186.332C576.28 183.122 578.883 180.518 582.096 180.518H614.962C618.18 180.518 620.782 183.122 620.782 186.332V219.18Z" fill="black"/>
<path d="M703.259 187.963V239.725H718V165.785H704.61L658.761 216.664V165.785H644.02V239.725H657.428L703.259 187.963Z" fill="black"/>
<path d="M329.274 182.674C330.725 181.222 332.458 180.519 334.571 180.519H364.167H384.891H386.444V165.785H364.168H334.515C331.435 165.855 328.504 166.513 325.807 167.735C323.142 168.942 320.784 170.56 318.801 172.542C316.808 174.535 315.224 176.884 314.093 179.517C312.956 182.174 312.379 185.016 312.379 187.965V217.545C312.379 220.63 312.973 223.564 314.147 226.268C315.308 228.949 316.927 231.322 318.963 233.318C320.989 235.311 323.376 236.889 326.064 238.017C328.741 239.145 331.585 239.715 334.516 239.722L334.572 239.725H364.168H386.445V224.991H385.002H364.197H334.543C332.444 224.984 330.72 224.283 329.274 222.838C327.824 221.388 327.118 219.655 327.118 217.545V187.964C327.118 185.854 327.822 184.122 329.274 182.674Z" fill="black"/>
<path d="M687.768 143.461H674.408V156.814H687.768V143.461Z" fill="black"/>
<path d="M122.901 313.38V281.405H150.31V285.978H127.477V313.379L122.901 313.38ZM158.067 313.38V281.405H180.906C182.125 281.405 183.282 281.64 184.385 282.119C185.482 282.591 186.443 283.239 187.263 284.061C188.079 284.875 188.74 285.841 189.252 286.96C189.754 288.07 190.021 289.272 190.051 290.55V295.117C190.051 296.342 189.814 297.491 189.351 298.588C188.878 299.681 188.231 300.648 187.409 301.487C186.586 302.323 185.611 302.993 184.5 303.495C183.381 303.99 182.187 304.242 180.906 304.242H162.642V313.38L158.067 313.38ZM162.642 299.691H180.906C182.187 299.691 183.268 299.249 184.15 298.367C185.033 297.475 185.476 296.396 185.476 295.117V290.55C185.476 289.272 185.033 288.192 184.15 287.303C183.268 286.419 182.188 285.978 180.906 285.978H162.642V299.691ZM198.72 290.551V281.412H203.296V290.551C203.296 291.831 203.737 292.911 204.621 293.793C205.512 294.676 206.594 295.118 207.873 295.118H226.137V281.413H230.713V304.242C230.713 305.458 230.477 306.616 229.998 307.719C229.525 308.813 228.871 309.78 228.048 310.618C227.217 311.448 226.251 312.118 225.148 312.62C224.035 313.129 222.848 313.38 221.569 313.38H208.762C207.506 313.38 206.341 313.145 205.246 312.68C204.149 312.208 203.19 311.561 202.368 310.739C201.546 309.918 200.891 308.944 200.403 307.832C199.924 306.715 199.665 305.52 199.635 304.242H204.21C204.21 305.52 204.652 306.6 205.528 307.482C206.403 308.366 207.484 308.807 208.763 308.807H221.562C222.841 308.807 223.921 308.367 224.812 307.482C225.696 306.601 226.137 305.511 226.137 304.242V299.691H207.864C206.647 299.691 205.481 299.454 204.361 298.975C203.251 298.503 202.269 297.856 201.431 297.036C200.594 296.221 199.93 295.254 199.444 294.143C198.965 293.024 198.72 291.831 198.72 290.551ZM240.715 313.38V281.406H272.7V313.38H268.124V285.979H245.291V313.38H240.715ZM282.733 313.38V281.406H314.718V313.38H310.142V285.979H287.309V313.38H282.733ZM324.751 313.38V290.544C324.751 289.327 324.987 288.169 325.468 287.082C325.938 285.986 326.585 285.019 327.408 284.183C328.223 283.338 329.189 282.668 330.302 282.166C331.42 281.656 332.616 281.406 333.895 281.406H347.591C348.809 281.406 349.967 281.641 351.07 282.12C352.167 282.592 353.128 283.239 353.947 284.061C354.763 284.876 355.425 285.841 355.936 286.96C356.439 288.071 356.706 289.266 356.736 290.544V313.38H352.16V304.242H329.327V313.38H324.751ZM329.327 299.691H352.16V290.551C352.16 289.273 351.718 288.193 350.835 287.304C349.952 286.42 348.871 285.979 347.591 285.979H333.894C332.615 285.979 331.534 286.419 330.652 287.304C329.767 288.193 329.326 289.273 329.326 290.551L329.327 299.691ZM390.514 313.38V281.413H395.09V295.118H402.36L416.056 281.413H422.506L406.51 297.393L422.506 313.38H416.056L402.36 299.692H395.09V313.38H390.514ZM429.806 304.242V290.544C429.806 289.296 430.05 288.117 430.53 287.013C431.016 285.903 431.672 284.936 432.493 284.114C433.324 283.292 434.29 282.631 435.41 282.143C436.521 281.65 437.7 281.406 438.949 281.406H452.654C453.87 281.406 455.032 281.65 456.118 282.143C457.213 282.631 458.182 283.292 459.017 284.114C459.865 284.936 460.534 285.903 461.036 287.013C461.548 288.116 461.799 289.296 461.799 290.544V304.242C461.799 305.489 461.552 306.669 461.059 307.779C460.574 308.898 459.91 309.863 459.089 310.679C458.263 311.5 457.298 312.155 456.185 312.641C455.081 313.136 453.906 313.38 452.654 313.38H438.949C437.671 313.38 436.475 313.144 435.364 312.68C434.244 312.207 433.278 311.56 432.449 310.738C431.626 309.909 430.979 308.943 430.507 307.824C430.041 306.714 429.806 305.52 429.806 304.242ZM434.382 304.233C434.382 305.511 434.823 306.593 435.707 307.482C436.597 308.366 437.679 308.806 438.958 308.806H452.649C453.928 308.806 455.005 308.366 455.898 307.482C456.782 306.593 457.222 305.511 457.222 304.233V290.551C457.222 289.273 456.782 288.193 455.898 287.303C455.005 286.419 453.928 285.979 452.649 285.979H438.958C437.679 285.979 436.597 286.419 435.707 287.303C434.823 288.193 434.382 289.273 434.382 290.551V304.233ZM471.358 313.38V281.413H475.935L489.649 301.19L503.344 281.413H507.917V313.38H503.344V289.593L489.649 309.37L475.935 289.593V313.38H471.358ZM517.942 313.38V281.406H549.929V313.38H545.352V285.979H522.52V313.38H517.942ZM559.963 313.38V290.544C559.963 289.327 560.197 288.169 560.677 287.082C561.148 285.986 561.794 285.019 562.62 284.183C563.432 283.338 564.401 282.668 565.514 282.166C566.632 281.656 567.825 281.406 569.104 281.406H582.8C584.021 281.406 585.178 281.641 586.282 282.12C587.377 282.592 588.338 283.239 589.159 284.061C589.976 284.876 590.635 285.841 591.147 286.96C591.649 288.071 591.914 289.266 591.946 290.544V313.38H587.368V304.242H564.536V313.38H559.963ZM564.536 299.691H587.368V290.551C587.368 289.273 586.929 288.193 586.045 287.304C585.165 286.42 584.084 285.979 582.8 285.979H569.104C567.825 285.979 566.744 286.419 565.86 287.304C564.976 288.193 564.536 289.273 564.536 290.551V299.691ZM601.98 313.38V281.413H606.557V295.118H629.389V281.413H633.962V313.38H629.389V299.691H606.557V313.38H601.98ZM643.996 313.38V281.413H648.573V306.759L671.406 281.413H675.983V313.38H671.406V287.584L648.573 313.38H643.996ZM686.017 313.38V281.413H690.59V306.759L713.422 281.413H718V313.38H713.422V287.584L690.59 313.38H686.017ZM692.883 272.298H697.429C697.429 273.576 697.869 274.656 698.753 275.538C699.641 276.422 700.727 276.863 702.006 276.863C703.285 276.863 704.362 276.422 705.255 275.538C706.139 274.656 706.579 273.576 706.579 272.298H711.156C711.156 273.514 710.918 274.672 710.443 275.759C709.967 276.855 709.321 277.822 708.499 278.659C707.683 279.503 706.718 280.165 705.596 280.667C704.479 281.162 703.285 281.413 702.006 281.413C700.759 281.413 699.583 281.178 698.492 280.713C697.397 280.241 696.437 279.594 695.616 278.774C694.786 277.952 694.14 276.985 693.65 275.874C693.175 274.771 692.914 273.576 692.883 272.298Z" fill="#EB602C"/>
</g>
</g>
<defs>
<clipPath id="clip0_183_1667">
<rect width="718" height="314" fill="white"/>
</clipPath>
</defs>
</svg>
